<svg width="32" height="33" viewBox="0 0 32 33" fill="none" xmlns="http://www.w3.org/2000/svg">
<ellipse cx="16" cy="16.5273" rx="16" ry="16.3455" fill="#4DA9FF"/>
<path d="M15.401 22.4968L22.797 14.6974C21.5526 14.1495 20.4226 13.3491 19.471 12.3415C18.5151 11.3378 17.7557 10.1457 17.236 8.83306L9.84 16.6325C9.263 17.241 8.974 17.5457 8.726 17.8811C8.4331 18.2768 8.18196 18.705 7.977 19.1581C7.804 19.542 7.675 19.9511 7.417 20.7674L6.055 25.0731C5.99231 25.2702 5.98301 25.4819 6.02814 25.6843C6.07327 25.8867 6.17104 26.0718 6.31047 26.2189C6.44989 26.3659 6.62544 26.469 6.81738 26.5166C7.00932 26.5642 7.21005 26.5544 7.397 26.4883L11.48 25.052C12.255 24.7799 12.642 24.6439 13.006 24.4614C13.436 24.2452 13.842 23.9806 14.217 23.6716C14.535 23.41 14.824 23.1053 15.401 22.4968ZM24.849 12.5335C25.5864 11.7558 26.0007 10.7011 26.0007 9.6013C26.0007 8.50152 25.5864 7.44679 24.849 6.66913C24.1116 5.89147 23.1114 5.45459 22.0685 5.45459C21.0256 5.45459 20.0254 5.89147 19.288 6.66913L18.401 7.60451L18.439 7.72157C18.8761 9.04051 19.5914 10.2376 20.531 11.2227C21.493 12.2431 22.668 13.0123 23.962 13.4688L24.849 12.5335Z" fill="white"/>
</svg>
