<svg xmlns="http://www.w3.org/2000/svg" viewBox="0 0 500 500"><g id="freepik--background-complete--inject-34"><path d="M221.79,38.23H324.4V92.46H248.92c-2.23,3.43-6.94,11.23-6.94,11.23l-5.43-11.23H221.79Z" style="fill:#fafafa"></path><path d="M221.79,38.23s0,.34,0,1,0,1.6,0,2.83c0,2.49,0,6.14,0,10.83,0,9.38.06,22.91.1,39.59l-.19-.2,14.76,0h.13l.06.12c1.71,3.52,3.55,7.32,5.44,11.23l-.39,0,6.94-11.24.06-.11h.13l68.82,0h6.66l-.26.26c0-19.15,0-37.43,0-54.23l.24.24-73.85-.1-21.15-.08-5.65,0-1.46,0h0l1.44,0,5.61,0,21.17-.08L324.4,38h.24v.24c0,16.8,0,35.08,0,54.23v.26h-6.92l-68.82,0,.2-.1-7,11.21-.21.35-.18-.36-5.42-11.24.19.12-14.76,0h-.2v-.19c0-16.73.08-30.3.11-39.71,0-4.67,0-8.3,0-10.78,0-1.22,0-2.16,0-2.8S221.79,38.23,221.79,38.23Z" style="fill:#e0e0e0"></path><path d="M246.07,64.92A4.8,4.8,0,0,0,249,60.5a4.52,4.52,0,1,0-9-.12,4.82,4.82,0,0,0,2.84,4.52c-6.95,1-6.7,8.52-6.7,8.52l16.4.22S252.93,66,246.07,64.92Z" style="fill:#e0e0e0"></path><path d="M310.38,57.27c0,.1-10.46.18-23.36.18s-23.35-.08-23.35-.18,10.45-.19,23.35-.19S310.38,57.16,310.38,57.27Z" style="fill:#e0e0e0"></path><path d="M310.38,62.86c0,.1-10.46.18-23.36.18s-23.35-.08-23.35-.18,10.45-.19,23.35-.19S310.38,62.75,310.38,62.86Z" style="fill:#e0e0e0"></path><path d="M310.38,68.45c0,.1-10.46.19-23.36.19s-23.35-.09-23.35-.19,10.45-.19,23.35-.19S310.38,68.34,310.38,68.45Z" style="fill:#e0e0e0"></path><path d="M291.6,75.52c0,.11-6.25.19-14,.19s-14-.08-14-.19,6.25-.2,14-.2S291.6,75.41,291.6,75.52Z" style="fill:#e0e0e0"></path><path d="M263.87,386.15,269,391a1.34,1.34,0,0,0,1.22.34l6.91-1.5a1.35,1.35,0,0,1,1.51,1.9l-3,6.4a1.37,1.37,0,0,0,.05,1.26l3.57,6.11a1.35,1.35,0,0,1-1.34,2l-7-.89a1.36,1.36,0,0,0-1.18.45L265,412.35a1.35,1.35,0,0,1-2.34-.65l-1.32-6.94a1.35,1.35,0,0,0-.79-1l-6.47-2.85a1.35,1.35,0,0,1-.11-2.42l6.2-3.41a1.37,1.37,0,0,0,.7-1l.71-7A1.35,1.35,0,0,1,263.87,386.15Z" style="fill:#ebebeb"></path><path d="M400.79,63.88l6.38,7.65a1.88,1.88,0,0,0,1.64.68l9.92-.92a1.91,1.91,0,0,1,1.79,2.92l-5.3,8.43a1.89,1.89,0,0,0-.14,1.77L419,93.56a1.91,1.91,0,0,1-2.22,2.61l-9.66-2.44a1.91,1.91,0,0,0-1.73.41l-7.49,6.58a1.91,1.91,0,0,1-3.16-1.31l-.66-9.94a1.89,1.89,0,0,0-.93-1.51l-8.57-5.09a1.91,1.91,0,0,1,.27-3.41l9.25-3.71a1.91,1.91,0,0,0,1.15-1.35l2.19-9.72A1.91,1.91,0,0,1,400.79,63.88Z" style="fill:#ebebeb"></path><path d="M461.44,289.61l.85,3.2a.63.63,0,0,0,.4.44l3.12,1.12a.63.63,0,0,1,.12,1.13l-2.78,1.79a.63.63,0,0,0-.29.52l-.11,3.31a.64.64,0,0,1-1,.47l-2.56-2.1a.63.63,0,0,0-.58-.11l-3.18.92a.63.63,0,0,1-.77-.84l1.2-3.09a.6.6,0,0,0-.07-.58L453.89,293a.63.63,0,0,1,.56-1l3.31.19a.65.65,0,0,0,.54-.24l2-2.62A.63.63,0,0,1,461.44,289.61Z" style="fill:#ebebeb"></path><path d="M458.85,222.7l-.83,9.93a1.93,1.93,0,0,0,.69,1.63l7.71,6.31a1.91,1.91,0,0,1-.77,3.34l-9.7,2.28a1.91,1.91,0,0,0-1.34,1.16L451,256.63a1.91,1.91,0,0,1-3.41.3l-5.17-8.52a1.9,1.9,0,0,0-1.52-.92l-9.94-.57a1.91,1.91,0,0,1-1.34-3.15l6.51-7.55a1.9,1.9,0,0,0,.4-1.73L434,224.86a1.91,1.91,0,0,1,2.58-2.25l9.19,3.86a1.92,1.92,0,0,0,1.77-.16l8.38-5.38A1.91,1.91,0,0,1,458.85,222.7Z" style="fill:#f5f5f5"></path><path d="M62.23,217.13l5.64,5.6a1.5,1.5,0,0,0,1.35.42L77,221.68a1.52,1.52,0,0,1,1.64,2.18L75.09,231a1.52,1.52,0,0,0,0,1.42l3.81,7a1.52,1.52,0,0,1-1.56,2.24l-7.86-1.22a1.54,1.54,0,0,0-1.34.46l-5.45,5.78a1.52,1.52,0,0,1-2.61-.8L58.83,238a1.54,1.54,0,0,0-.85-1.14l-7.18-3.4a1.52,1.52,0,0,1,0-2.73l7.07-3.63a1.52,1.52,0,0,0,.81-1.16l1-7.88A1.52,1.52,0,0,1,62.23,217.13Z" style="fill:#ebebeb"></path><rect x="144.53" y="103.39" width="34.76" height="12.93" transform="translate(-11.59 200.31) rotate(-61.69)" style="fill:#e0e0e0"></rect><rect x="147.6" y="105.05" width="34.76" height="12.93" transform="translate(-11.43 203.89) rotate(-61.69)" style="fill:#ebebeb"></rect><path d="M167,102.4a2.92,2.92,0,1,0,3.95-1.18A2.91,2.91,0,0,0,167,102.4Z" style="fill:#fff"></path><path d="M162,96.11a8.83,8.83,0,0,1,.61,3,8.84,8.84,0,0,1,.08,3.06,9.28,9.28,0,0,1-.6-3A9.32,9.32,0,0,1,162,96.11Z" style="fill:#ebebeb"></path><path d="M160.17,99.49a9.38,9.38,0,0,1,.6,3,9.34,9.34,0,0,1,.09,3.06,9.38,9.38,0,0,1-.6-3A9.34,9.34,0,0,1,160.17,99.49Z" style="fill:#ebebeb"></path><path d="M158.35,102.88a9.28,9.28,0,0,1,.6,3,9.32,9.32,0,0,1,.09,3.06,8.75,8.75,0,0,1-.61-3A8.86,8.86,0,0,1,158.35,102.88Z" style="fill:#ebebeb"></path><path d="M156.52,106.26a8.93,8.93,0,0,1,.61,3,8.86,8.86,0,0,1,.08,3.06,9.28,9.28,0,0,1-.6-3A9.4,9.4,0,0,1,156.52,106.26Z" style="fill:#ebebeb"></path><path d="M154.7,109.65a9.28,9.28,0,0,1,.6,3,9.32,9.32,0,0,1,.09,3.06,9.19,9.19,0,0,1-.6-3A9.34,9.34,0,0,1,154.7,109.65Z" style="fill:#ebebeb"></path><path d="M152.88,113a9.19,9.19,0,0,1,.6,3,9.34,9.34,0,0,1,.09,3.06,8.83,8.83,0,0,1-.61-3A8.84,8.84,0,0,1,152.88,113Z" style="fill:#ebebeb"></path><path d="M151.05,116.42a8.83,8.83,0,0,1,.61,3,8.92,8.92,0,0,1,.08,3.07,9.38,9.38,0,0,1-.6-3A9.34,9.34,0,0,1,151.05,116.42Z" style="fill:#ebebeb"></path><path d="M163.63,93.14a8.83,8.83,0,0,1,.61,3,8.84,8.84,0,0,1,.08,3.06,9.19,9.19,0,0,1-.6-3A9.34,9.34,0,0,1,163.63,93.14Z" style="fill:#ebebeb"></path><path d="M165.67,92.15c.14,0,.35.77.46,1.76s.09,1.81-.06,1.83-.35-.78-.46-1.77S165.52,92.16,165.67,92.15Z" style="fill:#ebebeb"></path><path d="M143.51,116.6l14-27.38s-5.39-4.41-6.35-15.48c-.63-7.33,3.77-12.36,4.37-15.11.36-1.68-3.22-3.23-4.82-3.87a6.69,6.69,0,0,0-6.49.65C140.09,58.59,137.28,70,137.28,70s0,2.63-2.83,1.1L124.3,65.59a6.28,6.28,0,0,0-4.31-.65,4.63,4.63,0,0,0-3.41,2.79c-1.78,4-.68,6.85-1.12,7.66S113.14,77,112.7,79.8s.17,2.85-.44,4A20.81,20.81,0,0,0,110.11,90a9.38,9.38,0,0,0,.16,3.37s-2.43,3.49-2.41,6.17c0,3.53,5.76,8.94,9.21,9.16,1.61.11,8.43,1.92,11.66,2.74S141.48,113.8,143.51,116.6Z" style="fill:#e0e0e0"></path><path d="M147,118.86l14.73-27.35S156.32,87.1,155.37,76a51.5,51.5,0,0,1,.72-15.31,3.54,3.54,0,0,0-2.1-4,5.37,5.37,0,0,0-5.72.76c-4.08,3.18-6.74,14.82-6.74,14.82s0,2.63-2.82,1.1l-10.16-5.47a6.25,6.25,0,0,0-4.3-.65A4.66,4.66,0,0,0,120.83,70c-1.78,4-.67,6.85-1.11,7.66s-2.33,1.64-2.77,4.41.17,2.85-.43,4a20.53,20.53,0,0,0-2.15,6.18,9.52,9.52,0,0,0,.15,3.37s-2.27,3.49-2.41,6.18,3.54,6.1,5,6.86,12.69,4.21,15.92,5S145,116.06,147,118.86Z" style="fill:#ebebeb"></path><path d="M139.27,64a20.13,20.13,0,0,1,1.3,3.8,20,20,0,0,1,1,3.89,13.05,13.05,0,0,1-1.51-3.74A13,13,0,0,1,139.27,64Z" style="fill:#ebebeb"></path><path d="M140.69,60A22.61,22.61,0,0,1,142,63.43a12.48,12.48,0,0,1,1.07,3.5,13.72,13.72,0,0,1-1.56-3.32A9,9,0,0,1,140.69,60Z" style="fill:#ebebeb"></path><path d="M142.75,56.89a21.08,21.08,0,0,1,1.2,2.7,6.53,6.53,0,0,1,.94,2.84,13.2,13.2,0,0,1-1.41-2.62A5.55,5.55,0,0,1,142.75,56.89Z" style="fill:#ebebeb"></path><path d="M145.35,54.74c.13-.05.59.82,1,1.94a4.86,4.86,0,0,1,.55,2.13c-.14.06-.6-.81-1-1.94S145.21,54.79,145.35,54.74Z" style="fill:#ebebeb"></path><path d="M148.28,54.23c.13-.08.5.38.84,1s.51,1.19.38,1.26-.5-.39-.84-1S148.16,54.3,148.28,54.23Z" style="fill:#ebebeb"></path><path d="M137.47,69.24c.13-.06.61.87,1.07,2.06a5.25,5.25,0,0,1,.59,2.25,5.46,5.46,0,0,1-1.07-2.06A5.28,5.28,0,0,1,137.47,69.24Z" style="fill:#ebebeb"></path><path d="M115.81,69.87A17.8,17.8,0,0,1,118,73.56a17.23,17.23,0,0,1,1.73,3.92,17.31,17.31,0,0,1-2.19-3.69A17.23,17.23,0,0,1,115.81,69.87Z" style="fill:#ebebeb"></path><path d="M118.46,65.32a6.34,6.34,0,0,1,1.4,2.15,6.68,6.68,0,0,1,.94,2.39c-.13.07-.76-.89-1.4-2.15A6.54,6.54,0,0,1,118.46,65.32Z" style="fill:#ebebeb"></path><path d="M113.79,77.34a8.18,8.18,0,0,1,1.8,2.62,8,8,0,0,1,1.1,3,13.29,13.29,0,0,1-1.56-2.75A12.51,12.51,0,0,1,113.79,77.34Z" style="fill:#ebebeb"></path><path d="M112.43,83.41A9.74,9.74,0,0,1,114,86.14a9.58,9.58,0,0,1,1.08,3,9.61,9.61,0,0,1-1.55-2.74A9.57,9.57,0,0,1,112.43,83.41Z" style="fill:#ebebeb"></path><path d="M110.26,90.28A18.34,18.34,0,0,1,112,93.51a18.72,18.72,0,0,1,1.51,3.32,10.08,10.08,0,0,1-2-3.09A10.06,10.06,0,0,1,110.26,90.28Z" style="fill:#ebebeb"></path><path d="M108.74,96.23a26,26,0,0,1,2,3.77,26.18,26.18,0,0,1,1.77,3.87,13.19,13.19,0,0,1-2.24-3.64A13.24,13.24,0,0,1,108.74,96.23Z" style="fill:#ebebeb"></path><rect x="65.46" y="132.85" width="24.16" height="8.99" transform="translate(-79.49 152.07) rotate(-65.91)" style="fill:#e0e0e0"></rect><rect x="63.24" y="131.86" width="24.16" height="8.99" transform="translate(-79.9 149.46) rotate(-65.91)" style="fill:#ebebeb"></rect><path d="M74.42,142.78a2,2,0,1,0-2.68,1A2,2,0,0,0,74.42,142.78Z" style="fill:#fff"></path><path d="M78.18,146.89a6.72,6.72,0,0,1-.57-2,6.16,6.16,0,0,1-.21-2.12,6.72,6.72,0,0,1,.57,2.05A6.46,6.46,0,0,1,78.18,146.89Z" style="fill:#ebebeb"></path><path d="M79.27,144.45a6.84,6.84,0,0,1-.57-2,6.47,6.47,0,0,1-.21-2.12,6.41,6.41,0,0,1,.57,2.05A6.15,6.15,0,0,1,79.27,144.45Z" style="fill:#ebebeb"></path><path d="M80.37,142a12.17,12.17,0,0,1-.79-4.17,6.41,6.41,0,0,1,.57,2A6.64,6.64,0,0,1,80.37,142Z" style="fill:#ebebeb"></path><path d="M81.46,139.57a12.84,12.84,0,0,1-.79-4.17,6.41,6.41,0,0,1,.57,2A6.32,6.32,0,0,1,81.46,139.57Z" style="fill:#ebebeb"></path><path d="M82.55,137.12a6.12,6.12,0,0,1-.57-2.05,6.32,6.32,0,0,1-.22-2.12,6.52,6.52,0,0,1,.57,2.06A6.28,6.28,0,0,1,82.55,137.12Z" style="fill:#ebebeb"></path><path d="M83.64,134.68a6.41,6.41,0,0,1-.57-2.05,6.32,6.32,0,0,1-.22-2.12,12.84,12.84,0,0,1,.79,4.17Z" style="fill:#ebebeb"></path><path d="M84.73,132.24a6.41,6.41,0,0,1-.57-2.05,6.32,6.32,0,0,1-.22-2.12,12.84,12.84,0,0,1,.79,4.17Z" style="fill:#ebebeb"></path><path d="M77.2,149a6.12,6.12,0,0,1-.57-2.05,6.32,6.32,0,0,1-.22-2.12,6.41,6.41,0,0,1,.57,2A6.32,6.32,0,0,1,77.2,149Z" style="fill:#ebebeb"></path><path d="M75.84,149.82c-.1,0-.28-.52-.41-1.2a2.46,2.46,0,0,1-.06-1.27c.1,0,.29.52.42,1.2S75.94,149.8,75.84,149.82Z" style="fill:#ebebeb"></path><path d="M90,131.74l-8.27,19.69s4,2.78,5.19,10.41c.82,5-2,8.76-2.25,10.7-.17,1.18,2.39,2.07,3.53,2.43a4.66,4.66,0,0,0,4.47-.77c2.67-2.42,4-10.45,4-10.45s-.15-1.82,1.9-.9l7.32,3.27a4.37,4.37,0,0,0,3,.23,3.23,3.23,0,0,0,2.22-2.11c1-2.88.12-4.78.38-5.37s1.53-1.25,1.7-3.2-.27-2,.09-2.77a14.3,14.3,0,0,0,1.18-4.4,6.66,6.66,0,0,0-.28-2.32s1.51-2.55,1.35-4.41c-.2-2.44-4.45-5.9-6.85-5.88-1.12,0-5.94-.9-8.23-1.3S91.5,133.57,90,131.74Z" style="fill:#e0e0e0"></path><path d="M87.43,130.34l-8.82,19.72s4,2.78,5.2,10.41a36.27,36.27,0,0,1,.28,10.65,2.46,2.46,0,0,0,1.66,2.7,3.73,3.73,0,0,0,3.93-.82c2.66-2.41,3.91-10.62,3.91-10.62s-.15-1.82,1.9-.91l7.32,3.28a4.37,4.37,0,0,0,3,.23,3.24,3.24,0,0,0,2.23-2.11c1-2.88.12-4.78.38-5.37s1.53-1.25,1.69-3.2-.26-2,.1-2.77a14.32,14.32,0,0,0,1.17-4.4,6.37,6.37,0,0,0-.28-2.32,11.17,11.17,0,0,0,1.36-4.41c0-1.87-2.76-4.05-3.79-4.51s-9-2.27-11.29-2.67S89,132.18,87.43,130.34Z" style="fill:#ebebeb"></path><path d="M95.58,168a13.85,13.85,0,0,1-1.09-2.58,13,13,0,0,1-.9-2.64,9.69,9.69,0,0,1,1.24,2.51A9.27,9.27,0,0,1,95.58,168Z" style="fill:#ebebeb"></path><path d="M94.8,170.81a16,16,0,0,1-1.11-2.29,8.54,8.54,0,0,1-.92-2.37A9.53,9.53,0,0,1,94,168.37,6.43,6.43,0,0,1,94.8,170.81Z" style="fill:#ebebeb"></path><path d="M93.53,173.1a17.64,17.64,0,0,1-1-1.81,4.65,4.65,0,0,1-.8-1.93,9.36,9.36,0,0,1,1.12,1.75A3.79,3.79,0,0,1,93.53,173.1Z" style="fill:#ebebeb"></path><path d="M91.84,174.72c-.09,0-.46-.54-.82-1.3a3.37,3.37,0,0,1-.48-1.45c.09,0,.45.54.81,1.3A3.39,3.39,0,0,1,91.84,174.72Z" style="fill:#ebebeb"></path><path d="M89.83,175.22c-.08.06-.37-.23-.63-.65s-.42-.81-.33-.86.37.25.63.66S89.91,175.17,89.83,175.22Z" style="fill:#ebebeb"></path><path d="M96.56,164.26c-.09.05-.47-.57-.85-1.37a3.69,3.69,0,0,1-.52-1.53c.09,0,.47.57.85,1.37A3.73,3.73,0,0,1,96.56,164.26Z" style="fill:#ebebeb"></path><path d="M111.55,162.72a24.84,24.84,0,0,1-3.11-5.08,24.84,24.84,0,0,1,3.11,5.08Z" style="fill:#ebebeb"></path><path d="M109.94,166c-.09.05-.57-.59-1.08-1.42a4.47,4.47,0,0,1-.77-1.61c.08-.06.57.58,1.08,1.42A4.68,4.68,0,0,1,109.94,166Z" style="fill:#ebebeb"></path><path d="M112.57,157.43a8.66,8.66,0,0,1-2.3-3.74,9.38,9.38,0,0,1,1.22,1.83A9.55,9.55,0,0,1,112.57,157.43Z" style="fill:#ebebeb"></path><path d="M113.2,153.16a6.82,6.82,0,0,1-1.22-1.82,7.06,7.06,0,0,1-.9-2,6.37,6.37,0,0,1,1.22,1.82A6.73,6.73,0,0,1,113.2,153.16Z" style="fill:#ebebeb"></path><path d="M114.35,148.28a13,13,0,0,1-1.34-2.15,12.66,12.66,0,0,1-1.21-2.23,7.28,7.28,0,0,1,1.52,2A6.86,6.86,0,0,1,114.35,148.28Z" style="fill:#ebebeb"></path><path d="M115.1,144.08a17.86,17.86,0,0,1-1.55-2.51,17.1,17.1,0,0,1-1.42-2.6,9.36,9.36,0,0,1,1.73,2.41A9.12,9.12,0,0,1,115.1,144.08Z" style="fill:#ebebeb"></path></g><g id="freepik--Floor--inject-34"><path d="M470.66,441.84c0,.14-98.36.26-219.65.26S31.34,442,31.34,441.84s98.33-.26,219.67-.26S470.66,441.7,470.66,441.84Z" style="fill:#263238"></path></g><g id="freepik--Stars--inject-34"><path d="M170.44,161.59l3.22,4.69a1.08,1.08,0,0,0,.89.47h5.68a1.09,1.09,0,0,1,.86,1.75l-3.46,4.5a1.06,1.06,0,0,0-.17,1l1.74,5.4a1.09,1.09,0,0,1-1.4,1.36l-5.35-1.9a1.08,1.08,0,0,0-1,.14l-4.6,3.33a1.09,1.09,0,0,1-1.73-.91l.16-5.67a1.09,1.09,0,0,0-.45-.91l-4.59-3.35a1.09,1.09,0,0,1,.34-1.92L166,168a1.07,1.07,0,0,0,.73-.7l1.76-5.4A1.09,1.09,0,0,1,170.44,161.59Z" style="fill:#FFC100"></path><path d="M421.69,275.91l4,2.08a.87.87,0,0,0,.8,0l4-2.13a.87.87,0,0,1,1.26.91l-.74,4.46a.88.88,0,0,0,.26.77l3.26,3.14a.87.87,0,0,1-.47,1.49l-4.48.67a.86.86,0,0,0-.65.48l-2,4.07a.86.86,0,0,1-1.55,0l-2-4.05a.88.88,0,0,0-.66-.47l-4.48-.63a.86.86,0,0,1-.49-1.47l3.23-3.18a.88.88,0,0,0,.24-.77l-.79-4.46A.86.86,0,0,1,421.69,275.91Z" style="fill:#FFC100"></path><path d="M197.27,142.45l.85,2.59a.55.55,0,0,0,.35.33l2.61.77a.52.52,0,0,1,.16.92l-2.19,1.6a.54.54,0,0,0-.22.44l.08,2.72a.51.51,0,0,1-.82.43l-2.21-1.59a.55.55,0,0,0-.48-.07l-2.56.92a.52.52,0,0,1-.67-.65l.83-2.59a.55.55,0,0,0-.08-.48l-1.66-2.15a.52.52,0,0,1,.41-.84h2.72a.5.5,0,0,0,.42-.22l1.54-2.25A.52.52,0,0,1,197.27,142.45Z" style="fill:#FFC100"></path><path d="M272.08,127.43l34.14,69.18a14.8,14.8,0,0,0,11.13,8.08l76.34,11.09A14.78,14.78,0,0,1,401.88,241l-55.24,53.84a14.8,14.8,0,0,0-4.25,13.08l22.06,80.74c.58,10.48-15.87,17.61-30.46,10.87l-68.28-35.89a14.73,14.73,0,0,0-13.75,0l-68.28,35.89a14.78,14.78,0,0,1-21.44-15.58l13-76A14.8,14.8,0,0,0,171,294.83L115.79,241A14.78,14.78,0,0,1,124,215.78l76.34-11.09a14.77,14.77,0,0,0,11.12-8.08l33.19-67.24c4.13-8.37,9.15-11.67,25-11.67C274.86,117.7,269.37,121.94,272.08,127.43Z" style="fill:#FFC100"></path><path d="M272.08,127.43l34.14,69.18a14.8,14.8,0,0,0,11.13,8.08l76.34,11.09A14.78,14.78,0,0,1,401.88,241l-55.24,53.84a14.8,14.8,0,0,0-4.25,13.08l22.06,80.74c.58,10.48-15.87,17.61-30.46,10.87l-68.28-35.89a14.73,14.73,0,0,0-13.75,0l-68.28,35.89a14.78,14.78,0,0,1-21.44-15.58l13-76A14.8,14.8,0,0,0,171,294.83L115.79,241A14.78,14.78,0,0,1,124,215.78l76.34-11.09a14.77,14.77,0,0,0,11.12-8.08l33.19-67.24c4.13-8.37,9.15-11.67,25-11.67C274.86,117.7,269.37,121.94,272.08,127.43Z" style="opacity:0.30000000000000004"></path><path d="M179.77,293.65a25.12,25.12,0,0,1-4.94.81,24.28,24.28,0,0,1-5,.3,24.67,24.67,0,0,1,4.94-.82A23.82,23.82,0,0,1,179.77,293.65Z" style="fill:#FFC100"></path><path d="M181.32,300.11a7.26,7.26,0,0,1-2.69.57,7.1,7.1,0,0,1-2.74,0,7.63,7.63,0,0,1,2.69-.56A7.47,7.47,0,0,1,181.32,300.11Z" style="fill:#FFC100"></path><path d="M175,288.08a29.54,29.54,0,0,1-5.42.87,29.61,29.61,0,0,1-5.48.36,27.63,27.63,0,0,1,5.42-.87A29.61,29.61,0,0,1,175,288.08Z" style="fill:#FFC100"></path><path d="M169.64,282.75a27.63,27.63,0,0,1-5.42.87,29.61,29.61,0,0,1-5.48.36,27.63,27.63,0,0,1,5.42-.87A29.61,29.61,0,0,1,169.64,282.75Z" style="fill:#FFC100"></path><path d="M164.29,277.42a27.63,27.63,0,0,1-5.42.87,29.61,29.61,0,0,1-5.48.36,29.54,29.54,0,0,1,5.42-.87A29.61,29.61,0,0,1,164.29,277.42Z" style="fill:#FFC100"></path><path d="M158.94,272.09a28.06,28.06,0,0,1-5.42.88,30.08,30.08,0,0,1-5.48.35,29.54,29.54,0,0,1,5.42-.87A29.61,29.61,0,0,1,158.94,272.09Z" style="fill:#FFC100"></path><path d="M153.59,266.76a28.06,28.06,0,0,1-5.42.88,30.08,30.08,0,0,1-5.48.35,29.54,29.54,0,0,1,5.42-.87A29.61,29.61,0,0,1,153.59,266.76Z" style="fill:#FFC100"></path><path d="M148.24,261.44a29.54,29.54,0,0,1-5.42.87,29,29,0,0,1-5.48.35,29.54,29.54,0,0,1,5.42-.87A28.07,28.07,0,0,1,148.24,261.44Z" style="fill:#FFC100"></path><path d="M142.89,256.11a29.54,29.54,0,0,1-5.42.87,29,29,0,0,1-5.48.35,29.54,29.54,0,0,1,5.42-.87A28.07,28.07,0,0,1,142.89,256.11Z" style="fill:#FFC100"></path><path d="M137.54,250.78a29.54,29.54,0,0,1-5.42.87,28.07,28.07,0,0,1-5.48.35,29.54,29.54,0,0,1,5.42-.87A28.07,28.07,0,0,1,137.54,250.78Z" style="fill:#FFC100"></path><path d="M121.82,227.61a24.44,24.44,0,0,1-5.07.48,24.22,24.22,0,0,1-5.09-.05,25.77,25.77,0,0,1,5.07-.47A25.54,25.54,0,0,1,121.82,227.61Z" style="fill:#FFC100"></path><path d="M123.47,221.93a21.36,21.36,0,0,1-4.78.14,22.61,22.61,0,0,1-4.76-.38,21.36,21.36,0,0,1,4.78-.14A22.61,22.61,0,0,1,123.47,221.93Z" style="fill:#FFC100"></path><path d="M128.67,216.57a13.58,13.58,0,0,1-3.79.34,13.58,13.58,0,0,1-3.79-.19,14.19,14.19,0,0,1,3.78-.33A14.42,14.42,0,0,1,128.67,216.57Z" style="fill:#FFC100"></path><path d="M132.19,245.45a29.54,29.54,0,0,1-5.42.87,28.07,28.07,0,0,1-5.48.35,29.54,29.54,0,0,1,5.42-.87A28.07,28.07,0,0,1,132.19,245.45Z" style="fill:#FFC100"></path><path d="M127.44,239.71a28.45,28.45,0,0,1-5.43.88,30.05,30.05,0,0,1-5.48.35,29.54,29.54,0,0,1,5.42-.87A29.7,29.7,0,0,1,127.44,239.71Z" style="fill:#FFC100"></path><path d="M123,234a29.31,29.31,0,0,1-5.4.87,28.72,28.72,0,0,1-5.45.35,29.29,29.29,0,0,1,5.39-.87A29.84,29.84,0,0,1,123,234Z" style="fill:#FFC100"></path><path d="M340,392.51a24.65,24.65,0,0,1-4.41,2.35,24.18,24.18,0,0,1-4.63,1.88,48.12,48.12,0,0,1,9-4.23Z" style="fill:#FFC100"></path><path d="M343.52,398.14a7.5,7.5,0,0,1-2.36,1.39,7.38,7.38,0,0,1-2.58.92,14.46,14.46,0,0,1,4.94-2.31Z" style="fill:#FFC100"></path><path d="M333.67,388.77a29.52,29.52,0,0,1-4.86,2.56,28.52,28.52,0,0,1-5.08,2.09,58.15,58.15,0,0,1,9.94-4.65Z" style="fill:#FFC100"></path><path d="M326.9,385.43a57.2,57.2,0,0,1-9.94,4.66,29.08,29.08,0,0,1,4.86-2.57A29.46,29.46,0,0,1,326.9,385.43Z" style="fill:#FFC100"></path><path d="M320.12,382.1a28.65,28.65,0,0,1-4.86,2.56,29.07,29.07,0,0,1-5.08,2.1,28.72,28.72,0,0,1,4.86-2.57A29.82,29.82,0,0,1,320.12,382.1Z" style="fill:#FFC100"></path><path d="M313.35,378.76a57.2,57.2,0,0,1-9.94,4.66,59.22,59.22,0,0,1,9.94-4.66Z" style="fill:#FFC100"></path><path d="M306.57,375.43a29.08,29.08,0,0,1-4.86,2.57,29.46,29.46,0,0,1-5.08,2.09,29.08,29.08,0,0,1,4.86-2.57A29.46,29.46,0,0,1,306.57,375.43Z" style="fill:#FFC100"></path><path d="M299.79,372.1a57.21,57.21,0,0,1-9.94,4.65,30,30,0,0,1,4.86-2.56A28.86,28.86,0,0,1,299.79,372.1Z" style="fill:#FFC100"></path><path d="M293,368.76a57.2,57.2,0,0,1-9.94,4.66,28.65,28.65,0,0,1,4.86-2.56A29.07,29.07,0,0,1,293,368.76Z" style="fill:#FFC100"></path><path d="M286.24,365.43a28.65,28.65,0,0,1-4.86,2.56,29.07,29.07,0,0,1-5.08,2.1,57.2,57.2,0,0,1,9.94-4.66Z" style="fill:#FFC100"></path><path d="M279.47,362.1a58.15,58.15,0,0,1-9.94,4.65,29.52,29.52,0,0,1,4.86-2.56A28.52,28.52,0,0,1,279.47,362.1Z" style="fill:#FFC100"></path><path d="M273.12,358.19a29.08,29.08,0,0,1-4.86,2.57,29.46,29.46,0,0,1-5.08,2.09,57.2,57.2,0,0,1,9.94-4.66Z" style="fill:#FFC100"></path><path d="M264.8,355.3a7.39,7.39,0,0,1-2.37,1.4,7.56,7.56,0,0,1-2.6.93,7.37,7.37,0,0,1,2.38-1.4A7.54,7.54,0,0,1,264.8,355.3Z" style="fill:#FFC100"></path><path d="M282.84,125.94,317,195.11a14.74,14.74,0,0,0,11.12,8.08l76.34,11.1a14.77,14.77,0,0,1,8.19,25.2l-55.24,53.85a14.78,14.78,0,0,0-4.25,13.08l13,76A14.77,14.77,0,0,1,344.74,398l-68.28-35.89a14.73,14.73,0,0,0-13.75,0L194.43,398A14.77,14.77,0,0,1,173,382.45l13-76a14.78,14.78,0,0,0-4.25-13.08l-55.24-53.85a14.77,14.77,0,0,1,8.19-25.2l76.34-11.1a14.74,14.74,0,0,0,11.12-8.08l34.14-69.17A14.78,14.78,0,0,1,282.84,125.94Z" style="fill:#FFC100"></path><path d="M218.73,199.29a24.33,24.33,0,0,1-2.3-4.44,23.84,23.84,0,0,1-1.82-4.66,24.33,24.33,0,0,1,2.3,4.44A23.84,23.84,0,0,1,218.73,199.29Z" style="fill:#FFC100"></path><path d="M213.06,202.76a7.44,7.44,0,0,1-1.36-2.38,7.34,7.34,0,0,1-.9-2.59,7,7,0,0,1,1.37,2.38A7.44,7.44,0,0,1,213.06,202.76Z" style="fill:#FFC100"></path><path d="M222.55,193a29.2,29.2,0,0,1-2.5-4.89,27.56,27.56,0,0,1-2-5.11,29.2,29.2,0,0,1,2.5,4.89A29.37,29.37,0,0,1,222.55,193Z" style="fill:#FFC100"></path><path d="M226,186.29a28.77,28.77,0,0,1-2.51-4.89,29.46,29.46,0,0,1-2-5.1,29.66,29.66,0,0,1,2.51,4.89A29.46,29.46,0,0,1,226,186.29Z" style="fill:#FFC100"></path><path d="M229.38,179.56a29.2,29.2,0,0,1-2.5-4.89,29.37,29.37,0,0,1-2-5.11,29.2,29.2,0,0,1,2.5,4.89A29.37,29.37,0,0,1,229.38,179.56Z" style="fill:#FFC100"></path><path d="M232.8,172.83a30.18,30.18,0,0,1-2.51-4.89,29.72,29.72,0,0,1-2-5.11,28.77,28.77,0,0,1,2.51,4.89A29.37,29.37,0,0,1,232.8,172.83Z" style="fill:#FFC100"></path><path d="M236.22,166.09a27.94,27.94,0,0,1-2.51-4.89,29.81,29.81,0,0,1-2-5.1,28.71,28.71,0,0,1,2.5,4.89A29.06,29.06,0,0,1,236.22,166.09Z" style="fill:#FFC100"></path><path d="M239.63,159.36a29.2,29.2,0,0,1-2.5-4.89,28.44,28.44,0,0,1-2-5.11,29.2,29.2,0,0,1,2.5,4.89A29.37,29.37,0,0,1,239.63,159.36Z" style="fill:#FFC100"></path><path d="M243.05,152.62a29.66,29.66,0,0,1-2.51-4.89,29.46,29.46,0,0,1-2-5.1,29.66,29.66,0,0,1,2.51,4.89A29.46,29.46,0,0,1,243.05,152.62Z" style="fill:#FFC100"></path><path d="M246.46,145.89A29.2,29.2,0,0,1,244,141a29.37,29.37,0,0,1-2-5.11,29.2,29.2,0,0,1,2.5,4.89A28.44,28.44,0,0,1,246.46,145.89Z" style="fill:#FFC100"></path><path d="M249.88,139.15a29.2,29.2,0,0,1-2.5-4.89,29.06,29.06,0,0,1-2-5.1,27.94,27.94,0,0,1,2.51,4.89A29.46,29.46,0,0,1,249.88,139.15Z" style="fill:#FFC100"></path><path d="M253.86,132.86a29.2,29.2,0,0,1-2.5-4.89,29.37,29.37,0,0,1-2-5.11,29.2,29.2,0,0,1,2.5,4.89A28.44,28.44,0,0,1,253.86,132.86Z" style="fill:#FFC100"></path><path d="M256.86,124.57a7.25,7.25,0,0,1-1.38-2.39,7.53,7.53,0,0,1-.89-2.61A7.82,7.82,0,0,1,256,122,7.67,7.67,0,0,1,256.86,124.57Z" style="fill:#FFC100"></path><path d="M259.76,130.48c.13.07-7.68,15.68-17.44,34.87S224.55,200,224.42,200s7.68-15.67,17.44-34.87S259.63,130.42,259.76,130.48Z" style="fill:#fff"></path><path d="M208,210.13s-.29.06-.84.14l-2.44.32-8.95,1.06L166.24,215,150,216.74c-2.5.27-4.88.51-7.07.92a24,24,0,0,0-5.88,1.81,13.59,13.59,0,0,0-6.4,6,12.6,12.6,0,0,0-1,3.12.65.65,0,0,1,0-.22c0-.15,0-.36.07-.64a9.68,9.68,0,0,1,.74-2.35,13.52,13.52,0,0,1,6.42-6.23,23.82,23.82,0,0,1,6-1.9c2.21-.44,4.6-.7,7.1-1l16.27-1.8,29.58-3.17,9-.9,2.44-.22A4.29,4.29,0,0,1,208,210.13Z" style="fill:#fff"></path><path d="M337.34,390.09c-.07.12-9.81-5.24-21.76-12s-21.57-12.31-21.5-12.44,9.81,5.24,21.76,12S337.41,390,337.34,390.09Z" style="fill:#fff"></path><path d="M280.26,358a28.45,28.45,0,0,0-5-1.61,26.75,26.75,0,0,0-12.57.8A58.32,58.32,0,0,0,251,362.43l-3.39,1.92a7.28,7.28,0,0,1-1.27.65,8,8,0,0,1,1.17-.83c.77-.5,1.89-1.21,3.3-2.05a52.14,52.14,0,0,1,11.68-5.4,25.79,25.79,0,0,1,12.79-.67,17.82,17.82,0,0,1,3.7,1.27,7.33,7.33,0,0,1,.94.5C280.16,357.94,280.27,358,280.26,358Z" style="fill:#fff"></path></g><g id="freepik--speech-bubble-2--inject-34"><path d="M413.44,183.38,424.36,180a29.18,29.18,0,1,0-7.55-7.22h0Z" style="fill:#fff"></path><path d="M413.44,183.38s.05-.22.19-.67l.61-2,2.44-8a.12.12,0,0,1,.15-.08l0,0h0l-.17.16a29,29,0,0,1-5.44-13.73,29.41,29.41,0,0,1,4.44-19.31,29.76,29.76,0,0,1,8.13-8.37,29.27,29.27,0,0,1,11.62-4.72,29.94,29.94,0,0,1,13.26.82,30.88,30.88,0,0,1,6.37,2.71,30.75,30.75,0,0,1,10.08,9.7,30.86,30.86,0,0,1,3,6.23,29.68,29.68,0,0,1,1.35,13.15,28.74,28.74,0,0,1-4.18,11.77A29.43,29.43,0,0,1,447.72,184a29.82,29.82,0,0,1-9.43.86,29,29,0,0,1-14-4.79l.1,0-8.2,2.49-2.08.62-.68.2,10.89-3.54a.09.09,0,0,1,.1,0,29.14,29.14,0,0,0,13.89,4.64,30.27,30.27,0,0,0,9.3-.89,29.51,29.51,0,0,0,9.46-4.45,29.11,29.11,0,0,0,7.81-8.35,28.35,28.35,0,0,0,4.1-11.58,29.23,29.23,0,0,0-1.35-12.92,29.46,29.46,0,0,0-12.81-15.65,30.35,30.35,0,0,0-6.26-2.66,29.5,29.5,0,0,0-13-.83A29.08,29.08,0,0,0,416.09,140a28.89,28.89,0,0,0,.82,32.66.13.13,0,0,1-.18.17v0l.19-.05C414.72,179.45,413.69,182.6,413.44,183.38Z" style="fill:#263238"></path><path d="M446.19,163.86l.26-11.8s-2.59-.57-4.83-4.15a19.66,19.66,0,0,1-2.4-5.31,1.33,1.33,0,0,0-1.4-1,2.06,2.06,0,0,0-1.81,1.25c-.83,1.78.28,6.18.28,6.18s.46.89-.77.86l-4.38-.1a2.41,2.41,0,0,0-1.57.53,1.75,1.75,0,0,0-.68,1.53c.1,1.67,1,2.44.95,2.79a3.16,3.16,0,0,0-.18,2c.33,1,.55.94.54,1.42a8,8,0,0,0,.34,2.47,3.51,3.51,0,0,0,.64,1.11,6.05,6.05,0,0,0,.25,2.51c.42.93,2.25,1.45,2.86,1.46s5-.76,6.26-1S445,163.27,446.19,163.86Z" style="fill:#FFC100"></path><rect x="444.44" y="155.69" width="12.13" height="4.51" transform="translate(282.57 604.82) rotate(-88.72)" style="fill:#FFC100"></rect></g><g id="freepik--speech-bubble-1--inject-34"><path d="M115.1,279.5h-85v44.95H92.6c1.85,2.84,5.76,9.31,5.76,9.31l4.5-9.31H115.1Z" style="fill:#fafafa"></path><path d="M115.1,279.5s0,.26,0,.78,0,1.31,0,2.31c0,2.06,0,5.07,0,8.94,0,7.8.06,19.05.1,32.92v.19h-.19l-12.24,0,.19-.12c-1.41,2.92-2.92,6.07-4.49,9.31l-.18.37-.21-.35-5.76-9.29.19.1-57,0H29.79v-.26c0-15.87,0-31,0-44.95v-.24h.24l61.27.1,17.55.08,4.65,0,1.19,0h0l-1.22,0-4.68,0-17.53.08-61.2.1.24-.24c0,13.92,0,29.08,0,44.95l-.26-.26h5.52l57,0h.13l.07.11c2,3.24,4,6.39,5.75,9.32l-.39,0c1.57-3.24,3.09-6.39,4.51-9.31l.06-.12h.13l12.24,0-.2.2c0-13.82.08-25,.11-32.81,0-3.88,0-6.9,0-9,0-1,0-1.8,0-2.34S115.1,279.5,115.1,279.5Z" style="fill:#263238"></path><path d="M49.93,301.63A4,4,0,0,0,52.34,298a3.74,3.74,0,1,0-7.47-.1,4,4,0,0,0,2.34,3.74c-5.75.82-5.54,7.07-5.54,7.07l13.59.18S55.62,302.53,49.93,301.63Z" style="fill:#FFC100"></path><path d="M103.24,295.28c0,.08-8.67.15-19.36.15s-19.36-.07-19.36-.15,8.67-.16,19.36-.16S103.24,295.19,103.24,295.28Z" style="fill:#263238"></path><path d="M103.24,299.91c0,.09-8.67.16-19.36.16s-19.36-.07-19.36-.16,8.67-.15,19.36-.15S103.24,299.83,103.24,299.91Z" style="fill:#263238"></path><path d="M103.24,304.55c0,.08-8.67.15-19.36.15s-19.36-.07-19.36-.15,8.67-.16,19.36-.16S103.24,304.46,103.24,304.55Z" style="fill:#263238"></path><path d="M87.67,310.41c0,.09-5.18.16-11.57.16s-11.58-.07-11.58-.16,5.18-.16,11.58-.16S87.67,310.32,87.67,310.41Z" style="fill:#263238"></path></g></svg>