<svg width="30" height="30" viewBox="0 0 30 30" fill="none" xmlns="http://www.w3.org/2000/svg">
<path d="M17.9 23.8375C17.9 24.6 17.4 25.6 16.7625 25.9875L15 27.125C13.3625 28.1375 11.0875 27 11.0875 24.975V18.2875C11.0875 17.4 10.5875 16.2625 10.075 15.6375L5.27495 10.5875C4.63745 9.95001 4.13745 8.82501 4.13745 8.06251V5.16251C4.13745 3.65001 5.27495 2.51251 6.66245 2.51251H23.3375C24.725 2.51251 25.8625 3.65001 25.8625 5.03751V7.81251C25.8625 8.82501 25.225 10.0875 24.6 10.7125" stroke="white" stroke-width="1.5" stroke-miterlimit="10" stroke-linecap="round" stroke-linejoin="round"/>
<path d="M24.8374 21.4L23.5874 20.15M20.0874 20.65C21.1483 20.65 22.1657 20.2286 22.9158 19.4785C23.666 18.7283 24.0874 17.7109 24.0874 16.65C24.0874 15.5892 23.666 14.5717 22.9158 13.8216C22.1657 13.0715 21.1483 12.65 20.0874 12.65C19.0265 12.65 18.0091 13.0715 17.259 13.8216C16.5088 14.5717 16.0874 15.5892 16.0874 16.65C16.0874 17.7109 16.5088 18.7283 17.259 19.4785C18.0091 20.2286 19.0265 20.65 20.0874 20.65Z" stroke="white" stroke-width="1.5" stroke-linecap="round" stroke-linejoin="round"/>
</svg>
