<svg width="30" height="30" viewBox="0 0 30 30" fill="none" xmlns="http://www.w3.org/2000/svg">
<path d="M17.9002 23.8375C17.9002 24.6 17.4002 25.6 16.7627 25.9875L15.0002 27.125C13.3627 28.1375 11.0877 27 11.0877 24.975V18.2875C11.0877 17.4 10.5877 16.2625 10.0752 15.6375L5.2752 10.5875C4.6377 9.95 4.1377 8.825 4.1377 8.0625V5.1625C4.1377 3.65 5.2752 2.5125 6.6627 2.5125H23.3377C24.7252 2.5125 25.8627 3.65 25.8627 5.0375V7.8125C25.8627 8.825 25.2252 10.0875 24.6002 10.7125" stroke="black" stroke-width="1.5" stroke-miterlimit="10" stroke-linecap="round" stroke-linejoin="round"/>
<path d="M24.8379 21.4L23.5879 20.15M20.0879 20.65C21.1488 20.65 22.1662 20.2286 22.9163 19.4784C23.6665 18.7283 24.0879 17.7109 24.0879 16.65C24.0879 15.5891 23.6665 14.5717 22.9163 13.8216C22.1662 13.0714 21.1488 12.65 20.0879 12.65C19.027 12.65 18.0096 13.0714 17.2595 13.8216C16.5093 14.5717 16.0879 15.5891 16.0879 16.65C16.0879 17.7109 16.5093 18.7283 17.2595 19.4784C18.0096 20.2286 19.027 20.65 20.0879 20.65Z" stroke="black" stroke-width="1.5" stroke-linecap="round" stroke-linejoin="round"/>
</svg>
