<svg width="35" height="24" viewBox="0 0 35 24" fill="none" xmlns="http://www.w3.org/2000/svg">
<g clip-path="url(#clip0_978_2)">
<path d="M32.4073 19.7527L27.9969 15.3422C29.0587 13.9286 29.6319 12.208 29.63 10.44C29.63 5.92406 25.9559 2.25 21.44 2.25C16.9241 2.25 13.25 5.92406 13.25 10.44C13.25 14.9559 16.9241 18.63 21.44 18.63C23.208 18.6319 24.9286 18.0587 26.3422 16.9969L30.7527 21.4073C30.9759 21.6069 31.2671 21.7134 31.5664 21.7051C31.8658 21.6967 32.1505 21.574 32.3623 21.3623C32.574 21.1505 32.6967 20.8658 32.7051 20.5664C32.7134 20.2671 32.6069 19.9759 32.4073 19.7527ZM15.59 10.44C15.59 9.28298 15.9331 8.15194 16.5759 7.18991C17.2187 6.22789 18.1324 5.47808 19.2013 5.0353C20.2702 4.59253 21.4465 4.47668 22.5813 4.70241C23.7161 4.92813 24.7584 5.48529 25.5766 6.30342C26.3947 7.12156 26.9519 8.16393 27.1776 9.29872C27.4033 10.4335 27.2875 11.6097 26.8447 12.6787C26.4019 13.7476 25.6521 14.6613 24.6901 15.3041C23.7281 15.9469 22.597 16.29 21.44 16.29C19.8891 16.2881 18.4022 15.6712 17.3055 14.5745C16.2088 13.4778 15.5919 11.9909 15.59 10.44Z" fill="#535353"/>
</g>
<defs>
<clipPath id="clip0_978_2">
<rect width="35" height="24" fill="white"/>
</clipPath>
</defs>
</svg>
